<?xml version="1.0" encoding="UTF-8" standalone="no"?>
<svg
   xmlns:dc="http://purl.org/dc/elements/1.1/"
   xmlns:cc="http://creativecommons.org/ns#"
   xmlns:rdf="http://www.w3.org/1999/02/22-rdf-syntax-ns#"
   xmlns:svg="http://www.w3.org/2000/svg"
   xmlns="http://www.w3.org/2000/svg"
   xmlns:sodipodi="http://sodipodi.sourceforge.net/DTD/sodipodi-0.dtd"
   xmlns:inkscape="http://www.inkscape.org/namespaces/inkscape"
   height="67px"
   id="Layer_1"
   style="enable-background:new 0 0 67 67;"
   version="1.1"
   viewBox="0 0 67 67"
   width="67px"
   xml:space="preserve"
   sodipodi:docname="linkedin_logo.svg"
   inkscape:version="0.92.3 (d244b95, 2018-08-02)"><metadata
     id="metadata9"><rdf:RDF><cc:Work
         rdf:about=""><dc:format>image/svg+xml</dc:format><dc:type
           rdf:resource="http://purl.org/dc/dcmitype/StillImage" /></cc:Work></rdf:RDF></metadata><defs
     id="defs7" /><sodipodi:namedview
     pagecolor="#ffffff"
     bordercolor="#666666"
     borderopacity="1"
     objecttolerance="10"
     gridtolerance="10"
     guidetolerance="10"
     inkscape:pageopacity="0"
     inkscape:pageshadow="2"
     inkscape:window-width="955"
     inkscape:window-height="480"
     id="namedview5"
     showgrid="false"
     inkscape:zoom="3.5223881"
     inkscape:cx="16.69292"
     inkscape:cy="33.5"
     inkscape:window-x="0"
     inkscape:window-y="0"
     inkscape:window-maximized="0"
     inkscape:current-layer="Layer_1" /><path
     d="M 49.837,48.137 V 36.425 c 0,-6.275 -3.35,-9.195 -7.816,-9.195 -3.604,0 -5.219,1.983 -6.119,3.374 V 27.71 h -6.79 c 0.09,1.917 0,20.427 0,20.427 h 6.79 V 36.729 c 0,-0.609 0.044,-1.219 0.224,-1.655 0.49,-1.22 1.607,-2.483 3.482,-2.483 2.458,0 3.44,1.873 3.44,4.618 v 10.929 h 6.789 z M 21.959,24.922 c 2.367,0 3.842,-1.57 3.842,-3.531 -0.044,-2.003 -1.475,-3.528 -3.797,-3.528 -2.322,0 -3.841,1.524 -3.841,3.528 0,1.961 1.474,3.531 3.753,3.531 z M 33,64 C 16.432,64 3,50.568 3,34 3,17.431 16.432,4 33,4 49.568,4 63,17.431 63,34 63,50.568 49.568,64 33,64 Z M 25.354,48.137 V 27.71 h -6.789 v 20.427 z"
     style="clip-rule:evenodd;fill:#010101;fill-rule:evenodd"
     id="path2"
     inkscape:connector-curvature="0" /></svg>